<svg version="1.1" xmlns="http://www.w3.org/2000/svg" xmlns:xlink="http://www.w3.org/1999/xlink" x="0px" y="0px"
viewBox="0 0 512 512" style="enable-background:new 0 0 512 512;" xml:space="preserve">
<g fill="currentColor">
<path d="M329.1,329.2c-10.1,0-18.3,8.2-18.3,18.3v45.7c0,3.8-0.8,7.4-2.1,10.7c-2.1,4.9-5.6,9.1-10,12.1c-2.2,1.5-4.6,2.6-7.2,3.4
c-2.6,0.8-5.3,1.2-8.2,1.2H64c-3.8,0-7.4-0.8-10.7-2.1c-4.9-2.1-9.1-5.6-12.1-10c-1.5-2.2-2.6-4.6-3.4-7.2
c-0.8-2.6-1.2-5.3-1.2-8.2V118.9c0-3.8,0.8-7.4,2.1-10.7c2.1-4.9,5.6-9.1,10-12.1c2.2-1.5,4.6-2.6,7.2-3.4c2.6-0.8,5.3-1.2,8.2-1.2
h219.4c3.8,0,7.4,0.8,10.7,2.1c4.9,2.1,9.1,5.6,12.1,10c1.5,2.2,2.6,4.6,3.4,7.2c0.8,2.6,1.2,5.3,1.2,8.2v45.7
c0,10.1,8.2,18.3,18.3,18.3c10-0.1,18.2-8.3,18.2-18.4v-45.7c0-8.8-1.8-17.3-5-24.9c-4.9-11.5-13-21.2-23.2-28.1
c-5.1-3.4-10.7-6.2-16.8-8.1c-6-1.9-12.4-2.9-19-2.9H64c-8.8,0-17.3,1.8-24.9,5c-11.5,4.9-21.2,13-28.1,23.2
c-3.4,5.1-6.2,10.7-8.1,16.8c-1.9,6-2.9,12.4-2.9,19v274.3c0,8.8,1.8,17.3,5,24.9c4.9,11.5,13,21.2,23.2,28.1
c5.1,3.4,10.7,6.2,16.8,8.1c6,1.9,12.4,2.9,19,2.9h219.4c8.8,0,17.3-1.8,24.9-5c11.5-4.9,21.2-13,28.1-23.2
c3.4-5.1,6.2-10.7,8.1-16.8c1.9-6,2.9-12.4,2.9-19v-45.7C347.4,337.4,339.2,329.2,329.1,329.2z"/>
<path d="M510.6,248.9c-0.1-0.3-0.3-0.6-0.4-0.9c-0.1-0.2-0.2-0.4-0.3-0.5c-1-2-2.4-3.7-4.1-5.2l-90.5-90.5
c-7.1-7.1-18.7-7.1-25.9,0c-7.2,7-7.2,18.6,0,25.7l60.2,60.2H181.7c-10.1,0-18.3,8.2-18.3,18.3c0,10.1,8.2,18.3,18.3,18.3h267.9
l-60.2,60.2c-7.1,7.1-7.1,18.7,0,25.9c7.1,7.1,18.7,7.1,25.9,0l91.4-91.4c3.4-3.4,5.4-8.1,5.4-12.9
C512.1,253.6,511.6,251.2,510.6,248.9z"/>
</g>
</svg>
