<svg width="48" height="48" viewBox="0 0 48 48" fill="none" xmlns="http://www.w3.org/2000/svg">
<line x1="46.75" y1="43" x2="46.75" y2="21" stroke="white" stroke-width="2.5"/>
<line x1="18.9995" y1="43" x2="48.0012" y2="43" stroke="white" stroke-width="2.5"/>
<path d="M46.8839 35.8839C47.372 35.3957 47.372 34.6043 46.8839 34.1161L38.9289 26.1612C38.4408 25.673 37.6493 25.673 37.1612 26.1612C36.673 26.6493 36.673 27.4408 37.1612 27.9289L44.2322 35L37.1612 42.0711C36.673 42.5592 36.673 43.3507 37.1612 43.8388C37.6493 44.327 38.4408 44.327 38.9289 43.8388L46.8839 35.8839ZM25 36.25L46 36.25V33.75L25 33.75V36.25Z" fill="currentColor"/>
<line y1="7.75" x2="44" y2="7.75" stroke="currentColor" stroke-width="2.5"/>
<line y1="41.75" x2="21" y2="41.75" stroke="currentColor" stroke-width="2.5"/>
<line x1="42.75" y1="9" x2="42.75" y2="22" stroke="currentColor" stroke-width="2.5"/>
<line x1="1.25" y1="7" x2="1.25" y2="43" stroke="currentColor" stroke-width="2.5"/>
<path d="M21.5611 23.3917L1.76921 9.10816C1.17909 8.68228 1.48035 7.75 2.20812 7.75L41.7919 7.75C42.5196 7.75 42.8209 8.68227 42.2308 9.10816L22.4389 23.3917C22.1769 23.5808 21.8231 23.5808 21.5611 23.3917Z" stroke="currentColor" stroke-width="2.5"/>
</svg>