<svg width="21" height="21" viewBox="0 0 21 21" fill="none" xmlns="http://www.w3.org/2000/svg">
<path d="M20.5117 15.6992C20.7253 15.4856 20.7253 15.1394 20.5117 14.9258L17.0314 11.4455C16.8178 11.2319 16.4716 11.2319 16.258 11.4455C16.0444 11.6591 16.0444 12.0053 16.258 12.2189L19.3516 15.3125L16.258 18.4061C16.0444 18.6197 16.0444 18.9659 16.258 19.1795C16.4716 19.3931 16.8178 19.3931 17.0314 19.1795L20.5117 15.6992ZM10.9375 15.8594L20.125 15.8594V14.7656L10.9375 14.7656V15.8594Z" fill="currentColor"/>
<line y1="3.39062" x2="19.25" y2="3.39062" stroke="currentColor" stroke-width="1.09375"/>
<line y1="18.2656" x2="9.1875" y2="18.2656" stroke="currentColor" stroke-width="1.09375"/>
<line x1="18.7031" y1="3.9375" x2="18.7031" y2="9.625" stroke="currentColor" stroke-width="1.09375"/>
<line x1="0.546875" y1="3.0625" x2="0.546875" y2="18.8125" stroke="currentColor" stroke-width="1.09375"/>
<path d="M9.43298 10.2339L0.774031 3.98482C0.51585 3.7985 0.647655 3.39062 0.966051 3.39062L18.2839 3.39062C18.6023 3.39062 18.7341 3.7985 18.476 3.98482L9.81702 10.2339C9.70238 10.3166 9.54762 10.3166 9.43298 10.2339Z" stroke="currentColor" stroke-width="1.09375"/>
</svg>
