<svg xmlns="http://www.w3.org/2000/svg" version="1.0" viewBox="0 0 781 781" preserveAspectRatio="xMidYMid meet">
  <g transform="translate(50,781) scale(0.08,-0.08)" fill="currentColor" stroke="none">
    <path d="M315 7786 c-158 -50 -272 -184 -295 -348 -13 -84 -13 -6992 0 -7076 20 -141 112 -265 240 -326 l65 -31 3035 0 3035 0 65 31 c128 61 220 185 240 326 14 93 13 5023 -1 5146 -11 107 -66 287 -120 393 -71 143 -118 194 -871 944 -670 668 -751 745 -823 787 -90 52 -215 106 -326 140 l-74 23 -2065 2 c-1651 1 -2073 -1 -2105 -11z m3595 -1443 c0 -549 4 -925 10 -968 6 -38 21 -93 35 -122 30 -66 109 -151 173 -186 107 -58 83 -57 1089 -57 l923 0 0 -2225 0 -2225 -2780 0 -2780 0 0 3340 0 3340 1665 0 1665 0 0 -897z m665 820 c39 -19 205 -179 744 -716 381 -381 708 -714 725 -742 18 -27 40 -69 49 -92 l17 -43 -815 0 -815 0 0 816 0 815 23 -7 c12 -3 45 -18 72 -31z"></path>
    <path d="M2984 5556 c-95 -41 -144 -214 -144 -502 0 -250 34 -505 105 -777 l35 -138 -69 -207 c-117 -351 -211 -572 -420 -992 -143 -286 -209 -410 -344 -643 l-79 -138 -27 25 c-15 14 -35 26 -46 26 -20 0 -107 -46 -230 -123 -345 -215 -618 -537 -633 -746 -7 -98 7 -118 120 -177 82 -42 101 -48 158 -48 41 -1 83 6 115 18 169 64 372 262 603 585 89 125 289 438 325 507 14 28 28 34 184 82 427 131 984 246 1428 293 l110 12 80 -40 c190 -95 487 -199 693 -243 58 -13 155 -24 240 -27 242 -10 314 23 371 170 34 86 39 148 17 201 -18 43 -71 103 -118 132 -59 38 -201 81 -328 100 -143 22 -520 24 -722 5 l-138 -13 -92 57 c-370 229 -552 432 -744 830 -40 83 -91 201 -115 264 l-42 115 16 140 c23 192 36 389 42 657 3 124 10 241 15 260 15 51 12 171 -5 220 -19 52 -58 96 -102 115 -43 18 -217 18 -259 0z m205 -309 c6 -36 7 -66 2 -76 -5 -9 -22 -95 -37 -191 -32 -200 -37 -196 -49 40 -7 134 3 256 25 316 l11 28 19 -29 c10 -17 23 -56 29 -88z m156 -1902 c121 -183 277 -357 425 -474 47 -37 49 -41 28 -45 -13 -3 -70 -15 -128 -26 -317 -64 -745 -190 -1018 -299 -29 -12 -51 -18 -49 -14 242 431 405 786 543 1183 3 8 30 -33 66 -100 33 -63 93 -164 133 -225z m1701 -705 c196 -16 316 -49 355 -96 13 -16 8 -17 -91 -11 -140 8 -357 56 -465 103 l-30 13 51 1 c28 0 109 -5 180 -10z m-3080 -647 c-41 -80 -250 -360 -350 -470 -53 -58 -181 -163 -199 -163 -15 0 54 117 128 215 96 128 215 257 335 361 52 46 96 84 98 84 1 0 -4 -12 -12 -27z"></path>
  </g>
</svg>
